# xmcd CD database file
#
# Track frame offsets:
#	150
#	16892
#	36250
#	57195
#	78287
#	94745
#	114610
#	134270
#	154592
#
# Disc length: 2392 seconds
#
# Revision: 0
# Processed by: cddbd v1.5.1PL0 Copyright (c) Steve Scherf et al.
# Submitted via: CDex 1.51
#
DISCID=67095609
DTITLE=斉藤さおり - KISS ME, GOOD BYE
DYEAR=1900
DGENRE=JPop
TTITLE0=サバンナの熱風
TTITLE1=DANCING STRANGERS
TTITLE2=蒼いブリザード
TTITLE3=KEEP ON DREAMS
TTITLE4=MUSIC〈I love youがかすれて〉
TTITLE5=ガラスのララバイ
TTITLE6=チェイン・スモーク
TTITLE7=HEARTACHE KLAXON
TTITLE8=時の終わりまで
EXTD=
EXTT0=
EXTT1=
EXTT2=
EXTT3=
EXTT4=
EXTT5=
EXTT6=
EXTT7=
EXTT8=
PLAYORDER=
